# xmcd
#
# Track frame offsets: 
#        150
#        16376
#        28609
#        38068
#        55760
#        65758
#        79963
#        94570
#        110153
#        123637
#        134081
#        147509
#        159383
#
# Disc length: 2340 seconds
#
# Revision: 0
# Processed by: cddbd v1.5.2PL0 Copyright (c) Steve Scherf et al.
# Submitted via: ExactAudioCopy v1.2
#
DISCID=bb09220d
DTITLE=Chris Ruest - Been Gone Too Long
DYEAR=2018
DGENRE=Blues
TTITLE0=I'm Goin' Home
TTITLE1=Can't Take No More
TTITLE2=Henhouse To The Doghouse
TTITLE3=Sufferin' Mind
TTITLE4=True Found Baby
TTITLE5=Been Gone Too Long
TTITLE6=The Girl That Radiates That Charm
TTITLE7=Mind Out That Gutter
TTITLE8=Nobody Cares
TTITLE9=I Quit
TTITLE10=Real Proud Papa
TTITLE11=oo Cool For School
TTITLE12=Jivetalk
EXTD=
EXTT0=
EXTT1=
EXTT2=
EXTT3=
EXTT4=
EXTT5=
EXTT6=
EXTT7=
EXTT8=
EXTT9=
EXTT10=
EXTT11=
EXTT12=
PLAYORDER=
